<svg id="Capa_1" enable-background="new 0 0 512 512" height="512" viewBox="0 0 512 512" width="512" xmlns="http://www.w3.org/2000/svg"><g><g><path d="m142.447 398.621s-57.989 28.11-57.989 105.879h92.536l24.638-23.619v-82.26z" fill="#fccb88"/><path d="m369.554 398.621s57.989 28.11 57.989 105.879h-92.536l-24.638-23.619v-82.26z" fill="#fccb88"/><path d="m310.369 311.463v168.526l-19.13 24.511h-70.477l-19.13-24.511v-168.526z" fill="#ff889e"/><path d="m107.073 311.463s-33.381 71.421 43.998 110.34c15.808 7.951 25.923 23.984 25.923 41.679v41.018h43.769v-193.037z" fill="#fbe29f"/><path d="m41.284 222.216c0-118.394 96.321-214.716 214.716-214.716s214.716 96.321 214.716 214.716z" fill="#5c586f"/><path d="m404.928 311.463s33.381 71.421-43.998 110.34c-15.808 7.951-25.923 23.984-25.923 41.679v41.018h-43.769v-193.037z" fill="#fbe29f"/><g><circle cx="431.638" cy="230.193" fill="#c7856a" r="49.296"/></g><path d="m122.822 208.182c0-93.516 56-172.834 133.605-200.676-.143 0-.284-.006-.427-.006-118.395 0-214.716 96.321-214.716 214.716h81.976c-.281-4.64-.438-9.317-.438-14.034z" fill="#4f4c5f"/><path d="m423.846 171.717c-2.778-9.666-12.585-15.522-22.422-13.431-115.424 24.542-196.223-36.347-231.576-71.204-7.09-6.991-18.289-7.386-25.921-.992-38.732 32.45-63.178 81.39-62.533 136.02 1.132 95.89 78.71 172.51 174.607 172.51 96.439 0 174.618-78.18 174.618-174.619 0-16.751-2.365-32.95-6.773-48.284z" fill="#da9d81"/><path d="m138.128 479.229c-7.538-2.124-11.926-9.955-9.803-17.493 8.698-30.878 33.797-48.605 34.861-49.344 6.43-4.469 15.266-2.878 19.734 3.553 4.456 6.413 2.887 15.218-3.5 19.698-.388.278-17.959 13.046-23.801 33.783-2.123 7.539-9.955 11.926-17.491 9.803z" fill="#ff889e"/><path d="m373.874 479.229c7.538-2.124 11.926-9.955 9.803-17.493-8.698-30.878-33.797-48.605-34.861-49.344-6.43-4.469-15.266-2.878-19.734 3.553-4.456 6.413-2.887 15.218 3.5 19.698.388.278 17.959 13.046 23.801 33.783 2.123 7.539 9.955 11.926 17.491 9.803z" fill="#ff889e"/><path d="m219.618 390.842c-57.89-36.636-96.796-104.715-96.796-182.66 0-47.214 14.277-90.808 38.398-125.989-5.867-1.528-12.332-.259-17.293 3.897-28.748 24.084-49.613 57.259-58.203 95.097-1.761-.19-3.55-.291-5.362-.291-27.226 0-49.296 22.071-49.296 49.296s22.071 49.296 49.296 49.296c3.75 0 7.399-.428 10.908-1.224 19.991 56.841 68.456 99.972 128.348 112.578z" fill="#c7856a"/><g fill="#fff"><ellipse cx="155.35" cy="251.69" rx="37.138" ry="29.575"/><ellipse cx="356.65" cy="251.69" rx="37.138" ry="29.575"/></g></g><g><path d="m176.994 200.539c-4.142 0-7.5 3.357-7.5 7.5v15.182c0 4.142 3.358 7.5 7.5 7.5s7.5-3.358 7.5-7.5v-15.182c0-4.143-3.358-7.5-7.5-7.5z"/><path d="m335.006 200.539c-4.142 0-7.5 3.357-7.5 7.5v15.182c0 4.142 3.358 7.5 7.5 7.5s7.5-3.358 7.5-7.5v-15.182c0-4.143-3.358-7.5-7.5-7.5z"/><path d="m281.757 217.114c-3.122-2.721-7.86-2.396-10.582.727-3.831 4.396-9.362 6.917-15.175 6.917s-11.344-2.521-15.175-6.917c-2.721-3.122-7.459-3.447-10.582-.727-3.123 2.722-3.448 7.459-.727 10.582 6.68 7.665 16.333 12.062 26.483 12.062 10.151 0 19.804-4.396 26.484-12.062 2.722-3.123 2.397-7.861-.726-10.582z"/><path d="m256 0c-20.865 0-41.538 2.908-61.442 8.643-3.98 1.147-6.277 5.303-5.13 9.284 1.146 3.979 5.3 6.277 9.283 5.13 18.554-5.347 37.829-8.057 57.289-8.057 99.722 0 183.5 70.899 202.958 165.393-7.783-4.272-17.189-6.934-26.876-6.994-.337-1.294-.679-2.541-1.027-3.754-2.644-9.201-9.945-15.958-18.685-18.339-9.278-2.53-11.806.395-32.859 3.139-79.072 10.307-150.509-19.569-204.397-72.703-9.668-9.531-25.143-10.501-36.004-1.4-28.421 23.81-49.435 56.037-59.194 93.058-8.829.054-18.428 2.359-26.867 6.99 13.363-64.704 56.917-118.756 115.88-146.181 3.756-1.747 5.384-6.208 3.637-9.963s-6.207-5.384-9.963-3.637c-67.719 31.496-117.782 96.611-127.205 174.945-7.409 9.595-11.832 21.607-11.832 34.64 0 33.525 29.13 60.059 62.785 56.468 3.438 8.8 7.567 17.315 12.352 25.482-2.557 6.854-7.199 22.112-6.135 40.331.908 15.548 6.192 35.278 23.299 53.145-16.718 16.583-38.909 48.149-38.909 98.88 0 4.142 3.358 7.5 7.5 7.5h343.086c4.142 0 7.5-3.358 7.5-7.5 0-50.73-22.191-82.296-38.909-98.879 24.958-26.068 29.031-61.965 17.078-93.704 4.739-8.1 8.848-16.545 12.279-25.27 33.625 3.688 62.943-22.795 62.943-56.454 0-13.038-4.427-25.054-11.841-34.651-13.291-110.534-107.589-195.542-220.594-195.542zm-217.435 230.193c0-21.846 16.806-39.718 38.031-41.613-4.688 26.88-3.39 55.786 4.74 83.397-23.719.536-42.771-18.635-42.771-41.784zm109.835 237.2c-1 3.55-4.701 5.615-8.239 4.617-3.544-1-5.616-4.695-4.617-8.24 3.911-13.76 11.782-26.124 21.728-36.275 4.15-4.236 8.331-7.667 10.194-8.944 1.49-1.036 3.287-1.394 4.993-1.088 5.451.981 7.881 8.147 2.343 12.268-2.551 1.89-6.223 5.143-9.595 8.784-7.495 8.064-13.792 18.109-16.807 28.878zm-21.362-51.752c3.979 3.07 8.968 6.361 12.947 8.681-9.271 11.293-15.52 23.461-18.88 35.382-4.115 14.61 7.813 28.893 22.76 27.47 19.113-1.686 16.74-16.1 25.199-29.288.737 5.023.315 5.157.43 39.115h-77.361c1.9-40.164 18.911-65.885 34.905-81.36zm53.838 28.504c1.813-1.618 3.003-2.468 2.851-2.361 15.619-10.956 10.393-35.664-8.61-39.083-10.496-1.89-17.209 3.633-24.522 10.378-36.49-19.93-48.808-51-41.156-84.688 5.55 7.489 11.703 14.604 18.45 21.271 23.919 23.629 53.331 39.832 85.374 47.461v99.877h-28.769c-.031-31.262 1.367-39.864-3.618-52.855zm47.387-44.107c18.459 2.79 37.445 2.732 55.476-.029v96.991h-55.476zm115.488 18.051c3.457 1.763 25.26 19.246 32.707 45.681.689 2.446-.086 4.994-1.82 6.64-3.672 3.515-9.695 1.749-11.036-3.018-4.386-15.57-15.888-30.185-26.713-37.889-5.668-3.975-2.218-13.053 4.772-12.078.762.108 1.467.341 2.09.664zm76.118 78.911h-77.361c.038-35.467-.191-34.919.43-39.114 7.846 12.23 5.064 18.224 14.035 24.985 16.728 12.645 39.476-3.456 33.924-23.167-3.584-12.754-10.237-24.853-18.879-35.381 4.565-2.667 9.365-5.918 12.947-8.682 15.993 15.475 33.004 41.196 34.904 81.359zm-17.355-168.823c7.765 33.811-4.595 64.967-41.107 84.901-7.524-6.938-14.134-12.247-24.522-10.378-18.839 3.391-24.361 28.035-8.688 39.028.608.426 2.047 1.638 2.927 2.42-4.755 12.324-3.582 18.142-3.616 52.852h-28.769v-99.924c17.843-4.289 34.869-11.246 50.687-20.718 3.932-2.355 4.911-7.734 1.824-11.325-2.335-2.721-6.354-3.454-9.533-1.549-77.962 46.703-180.168 22.404-228.249-55.944-.086-.141-.189-.266-.284-.399-41.944-68.714-29.204-161.019 35.559-215.302 4.713-3.948 11.527-3.664 15.84.583 62.467 61.595 146.974 92.639 238.401 73.199 5.872-1.244 11.85 2.154 13.665 8.204 17.558 61.17-.923 129.376-52.013 173.149-3.129 2.681-3.526 7.405-.812 10.583 2.694 3.146 7.429 3.512 10.575.817 10.326-8.843 19.687-18.937 27.509-29.401.199-.267.407-.528.606-.796zm28.067-56.201c8.203-27.567 9.538-56.365 4.823-83.396 21.711 1.98 38.03 20.166 38.03 41.613.001 23.418-19.347 42.369-42.853 41.783z"/></g></g></svg>